{
  "accessors": [
    {
      "bufferView": 2,
      "componentType": 5126,
      "count": 3560,
      "max": [
        0.8475300669670105,
        1.4541162252426147,
        0.8475298881530762
      ],
      "min": [
        -0.8475301265716553,
        -0.024401184171438217,
        -0.8475301265716553
      ],
      "type": "VEC3"
    },
    {
      "bufferView": 2,
      "byteOffset": 42720,
      "componentType": 5126,
      "count": 3560,
      "max": [
        1.0,
        0.9999758005142212,
        1.0
      ],
      "min": [
        -1.0,
        -0.9999999403953552,
        -1.0
      ],
      "type": "VEC3"
    },
    {
      "bufferView": 1,
      "componentType": 5126,
      "count": 3560,
      "max": [
        1.0000001192092896,
        1.0000001192092896
      ],
      "min": [
        0.0,
        0.0
      ],
      "type": "VEC2"
    },
    {
      "bufferView": 0,
      "componentType": 5125,
      "count": 18504,
      "type": "SCALAR"
    },
    {
      "bufferView": 2,
      "byteOffset": 85440,
      "componentType": 5126,
      "count": 6885,
      "max": [
        0.8290348649024963,
        1.4491358995437622,
        0.8290347456932068
      ],
      "min": [
        -0.8290348649024963,
        -0.00970474909991026,
        -0.8290348649024963
      ],
      "type": "VEC3"
    },
    {
      "bufferView": 2,
      "byteOffset": 168060,
      "componentType": 5126,
      "count": 6885,
      "max": [
        0.9999442100524902,
        0.9999988675117493,
        0.9999442100524902
      ],
      "min": [
        -0.9999442100524902,
        -0.9999995827674866,
        -0.9999441504478455
      ],
      "type": "VEC3"
    },
    {
      "bufferView": 1,
      "byteOffset": 28480,
      "componentType": 5126,
      "count": 6885,
      "max": [
        1.0000001192092896,
        1.0000001192092896
      ],
      "min": [
        0.0,
        0.0
      ],
      "type": "VEC2"
    },
    {
      "bufferView": 0,
      "byteOffset": 74016,
      "componentType": 5125,
      "count": 18360,
      "type": "SCALAR"
    },
    {
      "bufferView": 2,
      "byteOffset": 250680,
      "componentType": 5126,
      "count": 1577,
      "max": [
        0.5904566049575806,
        1.5218662023544312,
        0.5904566645622253
      ],
      "min": [
        -0.5904566049575806,
        -0.022080741822719574,
        -0.5904565453529358
      ],
      "type": "VEC3"
    },
    {
      "bufferView": 2,
      "byteOffset": 269604,
      "componentType": 5126,
      "count": 1577,
      "max": [
        0.9998915195465088,
        0.9998459219932556,
        0.9998915195465088
      ],
      "min": [
        -0.9998915195465088,
        -0.9962323904037476,
        -0.9998915195465088
      ],
      "type": "VEC3"
    },
    {
      "bufferView": 1,
      "byteOffset": 83560,
      "componentType": 5126,
      "count": 1577,
      "max": [
        1.0000001192092896,
        1.0000001192092896
      ],
      "min": [
        0.0,
        0.0
      ],
      "type": "VEC2"
    },
    {
      "bufferView": 0,
      "byteOffset": 147456,
      "componentType": 5125,
      "count": 4608,
      "type": "SCALAR"
    },
    {
      "bufferView": 2,
      "byteOffset": 288528,
      "componentType": 5126,
      "count": 421,
      "max": [
        0.646920382976532,
        1.429632544517517,
        0.6454551815986633
      ],
      "min": [
        -0.6528466939926147,
        1.2503608465194702,
        -0.6431722044944763
      ],
      "type": "VEC3"
    },
    {
      "bufferView": 2,
      "byteOffset": 293580,
      "componentType": 5126,
      "count": 421,
      "max": [
        0.4054696559906006,
        0.9999997019767761,
        0.5193057656288147
      ],
      "min": [
        -0.712007999420166,
        0.6781770586967468,
        -0.410429984331131
      ],
      "type": "VEC3"
    },
    {
      "bufferView": 1,
      "byteOffset": 96176,
      "componentType": 5126,
      "count": 421,
      "max": [
        1.0,
        0.9972609281539917
      ],
      "min": [
        0.010926200076937675,
        0.0027390718460083008
      ],
      "type": "VEC2"
    },
    {
      "bufferView": 0,
      "byteOffset": 165888,
      "componentType": 5125,
      "count": 1350,
      "type": "SCALAR"
    },
    {
      "bufferView": 2,
      "byteOffset": 298632,
      "componentType": 5126,
      "count": 4050,
      "max": [
        1.2031217813491821,
        2.6657016277313232,
        0.08886609971523285
      ],
      "min": [
        -0.20467086136341095,
        0.6159446239471436,
        -0.08886629343032837
      ],
      "type": "VEC3"
    },
    {
      "bufferView": 2,
      "byteOffset": 347232,
      "componentType": 5126,
      "count": 4050,
      "max": [
        0.999994158744812,
        0.9999491572380066,
        0.9999947547912598
      ],
      "min": [
        -0.9918153882026672,
        -0.9999311566352844,
        -0.9999947547912598
      ],
      "type": "VEC3"
    },
    {
      "bufferView": 1,
      "byteOffset": 99544,
      "componentType": 5126,
      "count": 4050,
      "max": [
        1.0000001192092896,
        1.0
      ],
      "min": [
        0.0,
        0.0
      ],
      "type": "VEC2"
    },
    {
      "bufferView": 0,
      "byteOffset": 171288,
      "componentType": 5125,
      "count": 17892,
      "type": "SCALAR"
    },
    {
      "bufferView": 2,
      "byteOffset": 395832,
      "componentType": 5126,
      "count": 3357,
      "max": [
        0.8420944809913635,
        2.387782096862793,
        0.06582028418779373
      ],
      "min": [
        0.20992986857891083,
        0.836824357509613,
        -0.06582031399011612
      ],
      "type": "VEC3"
    },
    {
      "bufferView": 2,
      "byteOffset": 436116,
      "componentType": 5126,
      "count": 3357,
      "max": [
        0.9609870314598083,
        0.9994269013404846,
        0.9999985694885254
      ],
      "min": [
        -0.9985737204551697,
        -0.9908419251441956,
        -0.9999985694885254
      ],
      "type": "VEC3"
    },
    {
      "bufferView": 1,
      "byteOffset": 131944,
      "componentType": 5126,
      "count": 3357,
      "max": [
        1.0005671977996826,
        0.8204530477523804
      ],
      "min": [
        -0.0005672317347489297,
        0.19066020846366882
      ],
      "type": "VEC2"
    },
    {
      "bufferView": 0,
      "byteOffset": 242856,
      "componentType": 5125,
      "count": 14688,
      "type": "SCALAR"
    }
  ],
  "asset": {
    "extras": {
      "author": "pixol3d (https://sketchfab.com/pixol3d)",
      "license": "CC-BY-4.0 (http://creativecommons.org/licenses/by/4.0/)",
      "source": "https://sketchfab.com/3d-models/mate-3d-bfc8b17031da4f60ade142583e9793b5",
      "title": "MATE 3D"
    },
    "generator": "Sketchfab-12.66.0",
    "version": "2.0"
  },
  "bufferViews": [
    {
      "buffer": 0,
      "byteLength": 301608,
      "name": "floatBufferViews",
      "target": 34963
    },
    {
      "buffer": 0,
      "byteLength": 158800,
      "byteOffset": 301608,
      "byteStride": 8,
      "name": "floatBufferViews",
      "target": 34962
    },
    {
      "buffer": 0,
      "byteLength": 476400,
      "byteOffset": 460408,
      "byteStride": 12,
      "name": "floatBufferViews",
      "target": 34962
    }
  ],
  "buffers": [
    {
      "byteLength": 936808,
      "uri": "scene.bin"
    }
  ],
  "images": [
    {
      "uri": "textures/FRENTE_MATE_baseColor.jpeg"
    },
    {
      "uri": "textures/YERBA_baseColor.jpeg"
    }
  ],
  "materials": [
    {
      "doubleSided": true,
      "name": "FRENTE_MATE",
      "pbrMetallicRoughness": {
        "baseColorTexture": {
          "index": 0
        },
        "metallicFactor": 0.14763420462214766,
        "roughnessFactor": 0.3482799190120935
      }
    },
    {
      "doubleSided": true,
      "name": "FRENTE_MATE.1",
      "pbrMetallicRoughness": {
        "baseColorFactor": [
          0.015876293507004053,
          0.015568619118445454,
          0.0151704286852508,
          1.0
        ],
        "metallicFactor": 0.36044026533875684,
        "roughnessFactor": 0.14155403145881595
      }
    },
    {
      "doubleSided": true,
      "name": "METAL",
      "pbrMetallicRoughness": {
        "baseColorFactor": [
          0.3792810206634685,
          0.3664576795247129,
          0.35280201816147727,
          1.0
        ],
        "roughnessFactor": 0.11723333880548918
      }
    },
    {
      "doubleSided": true,
      "name": "YERBA",
      "pbrMetallicRoughness": {
        "baseColorTexture": {
          "index": 1
        },
        "metallicFactor": 0.24491697523545472,
        "roughnessFactor": 0.45772303595206393
      }
    },
    {
      "doubleSided": true,
      "name": "METAL.2",
      "pbrMetallicRoughness": {
        "baseColorFactor": [
          0.09760766351008722,
          0.09760766351008722,
          0.09760766351008722,
          1.0
        ],
        "metallicFactor": 0.7799722136086435,
        "roughnessFactor": 0.13547385829548425
      }
    }
  ],
  "meshes": [
    {
      "name": "Object_0",
      "primitives": [
        {
          "attributes": {
            "NORMAL": 1,
            "POSITION": 0,
            "TEXCOORD_0": 2
          },
          "indices": 3,
          "material": 0,
          "mode": 4
        }
      ]
    },
    {
      "name": "Object_1",
      "primitives": [
        {
          "attributes": {
            "NORMAL": 5,
            "POSITION": 4,
            "TEXCOORD_0": 6
          },
          "indices": 7,
          "material": 1,
          "mode": 4
        }
      ]
    },
    {
      "name": "Object_2",
      "primitives": [
        {
          "attributes": {
            "NORMAL": 9,
            "POSITION": 8,
            "TEXCOORD_0": 10
          },
          "indices": 11,
          "material": 2,
          "mode": 4
        }
      ]
    },
    {
      "name": "Object_3",
      "primitives": [
        {
          "attributes": {
            "NORMAL": 13,
            "POSITION": 12,
            "TEXCOORD_0": 14
          },
          "indices": 15,
          "material": 3,
          "mode": 4
        }
      ]
    },
    {
      "name": "Object_4",
      "primitives": [
        {
          "attributes": {
            "NORMAL": 17,
            "POSITION": 16,
            "TEXCOORD_0": 18
          },
          "indices": 19,
          "material": 2,
          "mode": 4
        }
      ]
    },
    {
      "name": "Object_5",
      "primitives": [
        {
          "attributes": {
            "NORMAL": 21,
            "POSITION": 20,
            "TEXCOORD_0": 22
          },
          "indices": 23,
          "material": 4,
          "mode": 4
        }
      ]
    }
  ],
  "nodes": [
    {
      "children": [
        1
      ],
      "matrix": [
        1.0,
        0.0,
        0.0,
        0.0,
        0.0,
        2.220446049250313e-16,
        -1.0,
        0.0,
        0.0,
        1.0,
        2.220446049250313e-16,
        0.0,
        0.0,
        0.0,
        0.0,
        1.0
      ],
      "name": "Sketchfab_model"
    },
    {
      "children": [
        2
      ],
      "name": "root"
    },
    {
      "children": [
        3
      ],
      "matrix": [
        1.0,
        0.0,
        0.0,
        0.0,
        0.0,
        2.220446049250313e-16,
        1.0,
        0.0,
        0.0,
        -1.0,
        2.220446049250313e-16,
        0.0,
        0.0,
        0.0,
        0.0,
        1.0
      ],
      "name": "GLTF_SceneRootNode"
    },
    {
      "children": [
        4,
        5,
        6,
        7
      ],
      "name": "MATE_5"
    },
    {
      "mesh": 0,
      "name": "Object_4"
    },
    {
      "mesh": 1,
      "name": "Object_5"
    },
    {
      "mesh": 2,
      "name": "Object_6"
    },
    {
      "children": [
        8,
        9
      ],
      "name": "YERBA_4"
    },
    {
      "mesh": 3,
      "name": "Object_8"
    },
    {
      "children": [
        10,
        11
      ],
      "name": "BOMBILLA_3"
    },
    {
      "mesh": 4,
      "name": "Object_10"
    },
    {
      "mesh": 5,
      "name": "Object_11"
    }
  ],
  "samplers": [
    {
      "magFilter": 9729,
      "minFilter": 9987,
      "wrapS": 10497,
      "wrapT": 10497
    }
  ],
  "scene": 0,
  "scenes": [
    {
      "name": "Sketchfab_Scene",
      "nodes": [
        0
      ]
    }
  ],
  "textures": [
    {
      "sampler": 0,
      "source": 0
    },
    {
      "sampler": 0,
      "source": 1
    }
  ]
}
