{
  "accessors": [
    {
      "bufferView": 2,
      "componentType": 5126,
      "count": 15362,
      "max": [
        1.2717362642288208,
        10.288331031799316,
        2.37705659866333
      ],
      "min": [
        -1.2717362642288208,
        7.74485969543457,
        0.0001835486473282799
      ],
      "type": "VEC3"
    },
    {
      "bufferView": 2,
      "byteOffset": 184344,
      "componentType": 5126,
      "count": 15362,
      "max": [
        0.99998939037323,
        0.99998939037323,
        1.0
      ],
      "min": [
        -0.99998939037323,
        -0.9999896287918091,
        -1.0
      ],
      "type": "VEC3"
    },
    {
      "bufferView": 1,
      "componentType": 5126,
      "count": 15362,
      "max": [
        0.0,
        0.0
      ],
      "min": [
        0.0,
        0.0
      ],
      "type": "VEC2"
    },
    {
      "bufferView": 0,
      "componentType": 5125,
      "count": 90624,
      "type": "SCALAR"
    },
    {
      "bufferView": 2,
      "byteOffset": 368688,
      "componentType": 5126,
      "count": 1188,
      "max": [
        0.5027132630348206,
        1.0,
        0.2230382263660431
      ],
      "min": [
        -0.5024117231369019,
        -1.4322054386138916,
        -0.10533930361270905
      ],
      "type": "VEC3"
    },
    {
      "bufferView": 2,
      "byteOffset": 382944,
      "componentType": 5126,
      "count": 1188,
      "max": [
        1.0,
        0.9954291582107544,
        0.9983842372894287
      ],
      "min": [
        -1.0,
        -0.31663715839385986,
        -0.9982520937919617
      ],
      "type": "VEC3"
    },
    {
      "bufferView": 0,
      "byteOffset": 362496,
      "componentType": 5125,
      "count": 6624,
      "type": "SCALAR"
    },
    {
      "bufferView": 2,
      "byteOffset": 397200,
      "componentType": 5126,
      "count": 301,
      "max": [
        0.6286478042602539,
        -0.8869380354881287,
        0.24955442547798157
      ],
      "min": [
        -0.6143534779548645,
        -0.9515708088874817,
        -0.028871215879917145
      ],
      "type": "VEC3"
    },
    {
      "bufferView": 2,
      "byteOffset": 400812,
      "componentType": 5126,
      "count": 301,
      "max": [
        1.0,
        0.998796820640564,
        0.9978356957435608
      ],
      "min": [
        -1.0,
        -0.9987968802452087,
        -0.9978357553482056
      ],
      "type": "VEC3"
    },
    {
      "bufferView": 0,
      "byteOffset": 388992,
      "componentType": 5125,
      "count": 807,
      "type": "SCALAR"
    }
  ],
  "asset": {
    "extras": {
      "author": "Orking (https://sketchfab.com/Orking)",
      "license": "CC-BY-4.0 (http://creativecommons.org/licenses/by/4.0/)",
      "source": "https://sketchfab.com/3d-models/mate-eaa3056122ef412086f597ee8b1ed288",
      "title": "Mate"
    },
    "generator": "Sketchfab-15.34.0",
    "version": "2.0"
  },
  "bufferViews": [
    {
      "buffer": 0,
      "byteLength": 392220,
      "name": "floatBufferViews",
      "target": 34963
    },
    {
      "buffer": 0,
      "byteLength": 122896,
      "byteOffset": 392220,
      "byteStride": 8,
      "name": "floatBufferViews",
      "target": 34962
    },
    {
      "buffer": 0,
      "byteLength": 404424,
      "byteOffset": 515116,
      "byteStride": 12,
      "name": "floatBufferViews",
      "target": 34962
    }
  ],
  "buffers": [
    {
      "byteLength": 919540,
      "uri": "scene.bin"
    }
  ],
  "materials": [
    {
      "doubleSided": true,
      "name": "Material.001",
      "pbrMetallicRoughness": {
        "baseColorFactor": [
          0.35884,
          0.0880197,
          0.0168814,
          1.0
        ],
        "metallicFactor": 0.0,
        "roughnessFactor": 0.9685922091963742
      }
    },
    {
      "doubleSided": true,
      "name": "Bombilla",
      "pbrMetallicRoughness": {
        "baseColorFactor": [
          0.119275,
          0.119275,
          0.119275,
          1.0
        ],
        "metallicFactor": 0.0,
        "roughnessFactor": 0.9733292991983713
      }
    },
    {
      "doubleSided": true,
      "name": "Anillo",
      "pbrMetallicRoughness": {
        "baseColorFactor": [
          0.570469,
          0.192013,
          0.0,
          1.0
        ],
        "metallicFactor": 0.0,
        "roughnessFactor": 0.942173178632709
      }
    }
  ],
  "meshes": [
    {
      "name": "Mate_Material.001_0",
      "primitives": [
        {
          "attributes": {
            "NORMAL": 1,
            "POSITION": 0,
            "TEXCOORD_0": 2
          },
          "indices": 3,
          "material": 0,
          "mode": 4
        }
      ]
    },
    {
      "name": "Plane_Bombilla_0",
      "primitives": [
        {
          "attributes": {
            "NORMAL": 5,
            "POSITION": 4
          },
          "indices": 6,
          "material": 1,
          "mode": 4
        }
      ]
    },
    {
      "name": "Plane_Anillo_0",
      "primitives": [
        {
          "attributes": {
            "NORMAL": 8,
            "POSITION": 7
          },
          "indices": 9,
          "material": 2,
          "mode": 4
        }
      ]
    }
  ],
  "nodes": [
    {
      "children": [
        1
      ],
      "matrix": [
        1.0,
        0.0,
        0.0,
        0.0,
        0.0,
        2.220446049250313e-16,
        -1.0,
        0.0,
        0.0,
        1.0,
        2.220446049250313e-16,
        0.0,
        0.0,
        0.0,
        0.0,
        1.0
      ],
      "name": "Sketchfab_model"
    },
    {
      "children": [
        2
      ],
      "matrix": [
        0.009999999776482582,
        0.0,
        0.0,
        0.0,
        0.0,
        0.0,
        0.009999999776482582,
        0.0,
        0.0,
        -0.009999999776482582,
        0.0,
        0.0,
        0.0,
        0.0,
        0.0,
        1.0
      ],
      "name": "3641b683508f4ff9a54dfcb9d79880fd.fbx"
    },
    {
      "children": [
        3,
        5
      ],
      "name": "RootNode"
    },
    {
      "children": [
        4
      ],
      "matrix": [
        100.0,
        0.0,
        0.0,
        0.0,
        0.0,
        -1.629206793918314e-05,
        -99.99999999999868,
        0.0,
        0.0,
        99.99999999999868,
        -1.629206793918314e-05,
        0.0,
        3.2386447675078023e-16,
        1.4585559368133545,
        891.1776733398438,
        1.0
      ],
      "name": "Mate"
    },
    {
      "mesh": 0,
      "name": "Mate_Material.001_0"
    },
    {
      "children": [
        6,
        7
      ],
      "matrix": [
        30.000001907348633,
        5.054286019325337e-15,
        -2.322257770445321e-15,
        0.0,
        1.524322825868949e-14,
        -149.4122288608471,
        -128.26968065464175,
        0.0,
        -1.6847618938665804e-14,
        65.13826843693776,
        -75.87493647468473,
        0.0,
        6.7880048751831055,
        185.04043579101563,
        52.78144073486328,
        1.0
      ],
      "name": "Plane"
    },
    {
      "mesh": 1,
      "name": "Plane_Bombilla_0"
    },
    {
      "mesh": 2,
      "name": "Plane_Anillo_0"
    }
  ],
  "scene": 0,
  "scenes": [
    {
      "name": "Sketchfab_Scene",
      "nodes": [
        0
      ]
    }
  ]
}
